#!OML:ASF E:\id_vita\Project 1\Capture day 1\Session 1\Female.ASF
:FULLY-SPECIFIED
:DEGREES
341
root 18.6478 16.5414 -0.239746 401.98 85.9251 386.401
lowerback -16.3071 0.657704 -4.60247
upperback -4.53277 1.88566 -0.635005
thorax 4.17717 1.01428 2.30819
lowerneck 2.23528 -0.679373 -4.56614
upperneck 12.4541 -1.16864 6.18246
head 3.77287 -0.429863 2.87355
rclavicle -1.03492e-014 1.04362e-014
rhumerus -37.3648 -38.9713 -70.5691
rradius 14.1873
rwrist 33.9958
rhand -15.759 8.16883
rfingers 7.12502
rthumb 10.4327 -21.5523
lclavicle -1.03492e-014 1.04362e-014
lhumerus -46.409 40.5746 59.2655
lradius 15.9135
lwrist -48.3279
lhand -8.96227 25.1005
lfingers 7.12502
lthumb 16.9828 54.378
rfemur -21.7489 -2.92103 17.8523
rtibia 65.1196
rfoot 5.53491 -8.83571
rtoes -2.97773
lfemur -30.3872 -4.11105 -25.5401
ltibia 32.8969
lfoot -20.3602 -0.765727
ltoes 5.40797
342
root 18.8056 16.5474 -0.249274 402.728 85.854 387.194
lowerback -16.2235 0.535145 -4.73178
upperback -4.40355 1.73285 -0.573234
thorax 4.2739 0.930192 2.41714
lowerneck 2.18689 -0.551413 -4.6397
upperneck 12.3661 -1.00455 6.27294
head 3.74262 -0.350736 2.92142
rclavicle 8.65335e-015 -1.50082e-014
rhumerus -38.0709 -38.7221 -70.0374
rradius 14.4332
rwrist 33.362
rhand -15.5687 7.70849
rfingers 7.12502
rthumb 10.6162 -22.0033
lclavicle 8.65335e-015 -1.50082e-014
lhumerus -43.8234 39.401 62.2706
lradius 16.414
lwrist -46.0707
lhand -9.89088 25.214
lfingers 7.12502
lthumb 16.0887 54.5661
rfemur -23.346 -2.69891 17.9607
rtibia 65.7067
rfoot 5.22524 -9.67372
rtoes 1.82035
lfemur -29.6709 -4.2105 -25.6706
ltibia 32.831
lfoot -20.5386 -0.727166
ltoes 5.1091
343
root 18.9667 16.5501 -0.253469 402.132 85.82 386.546
lowerback -16.1479 0.438677 -4.83096
upperback -4.43402 1.61037 -0.461607
thorax 4.20348 0.871843 2.56537
lowerneck 2.04299 -0.568565 -4.65027
upperneck 12.599 -1.01189 6.1123
head 3.85102 -0.356358 2.87281
rclavicle 1.16274e-014 7.25564e-015
rhumerus -39.0435 -38.4461 -69.2517
rradius 14.5806
rwrist 32.7868
rhand -15.5752 7.50339
rfingers 7.12502
rthumb 10.6099 -22.2088
lclavicle 1.16274e-014 7.25564e-015
lhumerus -41.6463 37.9219 64.9667
lradius 17.0239
lwrist -43.8553
lhand -10.5924 25.1731
lfingers 7.12502
lthumb 15.4131 54.5785
rfemur -24.9709 -2.3378 18.2123
rtibia 66.0914
rfoot 4.75845 -10.4113
rtoes 5.94899
lfemur -29.1097 -4.28297 -25.6636
ltibia 32.843
lfoot -20.8027 -0.611616
ltoes 4.48067
344
root 19.129 16.5562 -0.261401 401.178 85.6854 385.488
lowerback -16.1214 0.392791 -4.86489
upperback -4.53999 1.55139 -0.392146
thorax 4.07823 0.849929 2.6445
lowerneck 1.86914 -0.727905 -4.61992
upperneck 12.9701 -1.19334 5.78136
head 4.02307 -0.450742 2.75516
rclavicle 1.77462e-014 -9.14409e-015
rhumerus -40.263 -38.7937 -67.9181
rradius 14.416
rwrist 32.8976
rhand -15.6668 7.75199
rfingers 7.12502
rthumb 10.5216 -21.9647
lclavicle 1.77462e-014 -9.14409e-015
lhumerus -39.6902 35.8776 67.6529
lradius 17.8752
lwrist -41.1833
lhand -10.9691 25.2798
lfingers 7.12502
lthumb 15.0503 54.7128
rfemur -26.5884 -1.90339 18.3517
rtibia 66.232
rfoot 2.53874 -11.2155
rtoes 1.26583
lfemur -28.5931 -4.3481 -25.7066
ltibia 32.9135
lfoot -21.1461 -0.413576
ltoes 3.49406
345
root 19.2858 16.5603 -0.272442 400.348 85.4795 384.695
lowerback -16.0175 0.346413 -4.91765
upperback -4.52478 1.48755 -0.342552
thorax 4.04068 0.817798 2.71233
lowerneck 2.66349 -0.365375 -4.7442
upperneck 12.3184 -0.748083 6.12756
head 3.61793 -0.238555 2.89052
rclavicle 3.11292e-014 -1.08338e-014
rhumerus -41.2016 -38.8263 -66.9799
rradius 14.4168
rwrist 32.4974
rhand -15.4783 7.78757
rfingers 7.12502
rthumb 10.7034 -21.9198
lclavicle 3.11292e-014 -1.08338e-014
lhumerus -37.81 33.7995 70.1792
lradius 18.8095
lwrist -38.1844
lhand -11.3645 25.3277
lfingers 7.12502
lthumb 14.6694 54.7888
rfemur -28.0765 -1.37848 18.3836
rtibia 66.1424
rfoot 1.15046 -11.8781
rtoes 0.487691
lfemur -27.9481 -4.39726 -25.8419
ltibia 32.9835
lfoot -21.3044 -0.216944
ltoes 2.63837
346
root 19.4396 16.5683 -0.284232 398.429 85.4487 382.845
lowerback -15.771 0.285789 -4.79989
upperback -4.51956 1.36504 -0.238785
thorax 3.92413 0.758885 2.72675
lowerneck 2.32356 -0.317427 -4.62588
upperneck 12.7573 -0.668051 6.00343
head 3.82955 -0.188459 2.83902
rclavicle -1.1823e-014 1.7344e-014
rhumerus -41.8291 -37.9281 -66.765
rradius 14.7484
rwrist 31.1805
rhand -15.2603 7.62218
rfingers 7.12502
rthumb 10.9137 -22.0742
lclavicle -1.1823e-014 1.7344e-014
lhumerus -36.2437 32.0862 72.1883
lradius 19.6818
lwrist -35.6555
lhand -11.7899 25.2204
lfingers 7.12502
lthumb 14.2595 54.7109
rfemur -29.4372 -0.816019 18.6077
rtibia 65.8293
rfoot 0.346406 -12.5304
rtoes 3.23378
lfemur -27.2757 -4.40127 -25.8357
ltibia 33.0354
lfoot -21.2355 -0.0946406
ltoes 2.65711
347
root 19.5884 16.5782 -0.296598 396.276 85.5784 380.742
lowerback -15.4033 0.220492 -4.54473
upperback -4.49912 1.2082 -0.137953
thorax 3.76451 0.683033 2.65235
lowerneck 2.02857 -0.31727 -4.72743
upperneck 12.9947 -0.67106 6.08117
head 3.97374 -0.186638 2.89355
rclavicle 3.61074e-017 9.49197e-015
rhumerus -42.3318 -37.0968 -66.6258
rradius 15.0193
rwrist 30.0327
rhand -15.2356 7.84095
rfingers 7.12502
rthumb 10.9375 -21.8542
lclavicle 3.61074e-017 9.49197e-015
lhumerus -34.6846 30.4494 74.0367
lradius 20.6235
lwrist -33.3642
lhand -11.8795 25.4307
lfingers 7.12502
lthumb 14.1731 54.9272
rfemur -30.707 -0.341296 18.9344
rtibia 65.3122
rfoot -0.404355 -13.1588
rtoes 5.41352
lfemur -26.6328 -4.43272 -25.7366
ltibia 33.1256
lfoot -21.3297 0.017202
ltoes 2.53475
